<svg id="Calque_1" data-name="Calque 1" xmlns="http://www.w3.org/2000/svg" viewBox="0 0 460.72 393.31"><defs><style>.cls-1{fill:#fff;}</style></defs><path class="cls-1" d="M383.16,178.07,288.23,83.14a101.72,101.72,0,0,0-143.86,0L49.44,178.07a101.72,101.72,0,0,0,0,143.86l94.93,94.93a101.72,101.72,0,0,0,143.86,0l6.1-6.1H293v-20.6h20.6v1.29l36.74-36.73h-9.7v-26.8h26.8v9.7l15.68-15.69A101.72,101.72,0,0,0,383.16,178.07ZM130.39,297.32c-2.27-17.08,5.31-35.83,22.52-55.74,31.68-36.68,30.5-70.37,27-87.19-3.58-17.08-12.54-31.6-23.15-37.81,7.45.21,32.25,2.47,48.92,22.56,14.91,18,19.4,45.21,13.35,81A134.91,134.91,0,0,0,215.63,201c-2.95-11.52-8.82-26.83-20-34.37l-2-1.39a92.51,92.51,0,0,1,8.6,25.69,64.25,64.25,0,0,1-.19,22.22,48.87,48.87,0,0,1-11,22.76C185,242.81,178,249,171.32,255c-20.85,18.61-40.56,36.21-24.94,71C142.31,322.55,132.44,312.83,130.39,297.32Zm142.73,28.74c-19.66,15.84-30.73,28.46-33,37.56a92.46,92.46,0,0,1-5.47-18.25c-1.95-10.41-1.66-27.39,6.07-40L239,306.55c-.25.16-6.43,4-13,14.22-6,9.25-13.33,25.69-14.85,51.61a45.26,45.26,0,0,1-7.29-7.66,52.68,52.68,0,0,1-10.17-25.47,51.19,51.19,0,0,1,11.94-39,157.87,157.87,0,0,0,29.41-52.41l.61-1.87-1.49,1.29a89.17,89.17,0,0,1-13.9,9.71c-42.49,24.37-61.12,53.12-58.34,90.2a82.39,82.39,0,0,1-4.36-22.85,70.26,70.26,0,0,1,20.27-53.45c15.31-15.89,28.77-23.39,39.58-29.42A53.94,53.94,0,0,0,245.21,189c-.93-9-4-17.33-10.07-27.21a194.44,194.44,0,0,1,26.14,33.53c7.84,12.88,13.24,25.67,16,38,3.49,15.37,2.91,30.07-1.72,43.68l-.62,1.83,1.49-1.23c.14-.12,13.62-11.41,18.54-28.45a95.87,95.87,0,0,1-1.71,17.53c-2.16,11.37-7.48,27.87-20.53,41.91l-1.8,2.12c.11-.06,12.9-7.17,25.29-7.17a37.42,37.42,0,0,1,6.92.64C299.36,306.66,286.28,315.45,273.12,326.06ZM312,360.83H298.13V347H312Zm41.89-73.37h-16v-16h16Zm26-8.41V258.44h20.61v20.61Z" transform="translate(-19.64 -53.34)"/><rect class="cls-1" x="390.68" y="303.73" width="20.61" height="20.61"/><rect class="cls-1" x="348.23" y="347.63" width="18.44" height="18.44"/><rect class="cls-1" x="401.87" y="357.07" width="11.02" height="11.02"/><rect class="cls-1" x="445.92" y="345.82" width="14.26" height="14.26"/><rect class="cls-1" x="449.7" y="308.6" width="11.02" height="11.02"/><rect class="cls-1" x="407.66" y="260.95" width="11.02" height="11.02"/></svg>