<svg id="Calque_1" data-name="Calque 1" xmlns="http://www.w3.org/2000/svg" viewBox="0 0 461.46 393.94"><defs><style>.cls-1{fill:#0a102a;}.cls-2{fill:#d930ff;}.cls-3{fill:#01d1d1;}</style></defs><path class="cls-1" d="M383.1,177.07,288,82a101.9,101.9,0,0,0-144.1,0L48.84,177.07a101.89,101.89,0,0,0,0,144.09l95.08,95.08a101.9,101.9,0,0,0,144.1,0l6.11-6.1h-1.3V389.5h20.64v1.29L350.26,354h-9.71V327.16h26.84v9.71l15.71-15.71A101.89,101.89,0,0,0,383.1,177.07ZM311.84,360.13H297.93V346.22h13.91Zm42-73.5H337.74V270.58H353.8Zm26.05-8.42V257.57h20.64v20.64Z" transform="translate(-19 -52.14)"/><path class="cls-2" d="M145.94,325.2c-4.08-3.42-14-13.15-16-28.7-2.26-17.09,5.32-35.88,22.56-55.82,31.73-36.74,30.55-70.48,27-87.33-3.59-17.1-12.56-31.65-23.19-37.87,7.46.21,32.3,2.48,49,22.6,14.94,18,19.44,45.27,13.38,81.1A135.81,135.81,0,0,0,215.3,200c-3-11.53-8.83-26.87-20.08-34.42l-2-1.39c0,.1,6.51,12.27,8.61,25.73a63.93,63.93,0,0,1-.19,22.25,48.81,48.81,0,0,1-11,22.8c-6,6.95-12.93,13.15-19.65,19.16C150,272.75,130.3,290.38,145.94,325.2Z" transform="translate(-19 -52.14)"/><path class="cls-3" d="M210.83,371.69a45,45,0,0,1-7.3-7.67,52.74,52.74,0,0,1-10.19-25.52,51.27,51.27,0,0,1,12-39.06,158.32,158.32,0,0,0,29.45-52.5l.61-1.88-1.49,1.3A88.94,88.94,0,0,1,220,256.08c-42.56,24.41-61.22,53.21-58.43,90.35a82.58,82.58,0,0,1-4.37-22.88A70.35,70.35,0,0,1,177.45,270c15.34-15.91,28.81-23.42,39.64-29.46A54,54,0,0,0,244.93,188c-.93-9-4-17.36-10.08-27.26A194.19,194.19,0,0,1,261,194.31c7.86,12.91,13.27,25.71,16.06,38.05,3.49,15.4,2.91,30.12-1.72,43.76l-.62,1.83,1.49-1.23c.15-.12,13.64-11.43,18.57-28.5a96.15,96.15,0,0,1-1.71,17.56c-2.17,11.39-7.5,27.91-20.57,42l-1.79,2.12c.1-.06,12.92-7.18,25.32-7.18a37.45,37.45,0,0,1,6.93.64c-3.81,2.53-16.91,11.33-30.09,22-19.69,15.87-30.78,28.52-33,37.63a92.07,92.07,0,0,1-5.48-18.28c-2-10.43-1.67-27.43,6.07-40.05l-1.74,1.16c-.26.16-6.45,4-13,14.24C219.73,329.27,212.35,345.73,210.83,371.69Z" transform="translate(-19 -52.14)"/><rect class="cls-1" x="391.31" y="304.21" width="20.64" height="20.64"/><rect class="cls-1" x="348.78" y="348.19" width="18.47" height="18.47"/><rect class="cls-1" x="402.51" y="357.64" width="11.04" height="11.04"/><rect class="cls-1" x="446.63" y="346.38" width="14.28" height="14.28"/><rect class="cls-1" x="450.42" y="309.09" width="11.04" height="11.04"/><rect class="cls-1" x="408.31" y="261.37" width="11.04" height="11.04"/></svg>