<svg id="Calque_1" data-name="Calque 1" xmlns="http://www.w3.org/2000/svg" viewBox="0 0 556.61 151.69"><path d="M161.89,72.26,125.28,35.65a39.23,39.23,0,0,0-55.48,0L33.19,72.26a39.23,39.23,0,0,0,0,55.48L69.8,164.35a39.23,39.23,0,0,0,55.48,0l2.35-2.35h-.49v-7.95h7.94v.5l14.17-14.16h-3.74V130.05h10.34v3.74l6-6A39.21,39.21,0,0,0,161.89,72.26Zm-97.48,46c-.87-6.59,2-13.82,8.68-21.5C85.31,82.61,84.86,69.61,83.5,63.13s-4.84-12.19-8.93-14.58c2.88.08,12.44,1,18.87,8.7,5.75,6.93,7.48,17.43,5.15,31.22a51.29,51.29,0,0,0-1.31-7.38c-1.13-4.45-3.4-10.35-7.73-13.26l-.78-.54a36,36,0,0,1,3.31,9.91A24.81,24.81,0,0,1,92,85.77a18.84,18.84,0,0,1-4.25,8.78,81,81,0,0,1-7.57,7.38c-8,7.17-15.64,14-9.61,27.37A17.82,17.82,0,0,1,64.41,118.25Zm55.05,11.08c-7.59,6.11-11.86,11-12.71,14.49a35.17,35.17,0,0,1-2.11-7c-.76-4-.64-10.56,2.34-15.42l-.68.45a18.07,18.07,0,0,0-5,5.48c-2.3,3.57-5.15,9.91-5.73,19.91a17.19,17.19,0,0,1-2.81-3,20.26,20.26,0,0,1-3.92-9.82,19.74,19.74,0,0,1,4.6-15,61,61,0,0,0,11.34-20.22l.24-.72-.58.5a33.24,33.24,0,0,1-5.36,3.74c-16.38,9.4-23.57,20.49-22.5,34.79a31.93,31.93,0,0,1-1.68-8.81A27.16,27.16,0,0,1,82.71,108,58.85,58.85,0,0,1,98,96.7a20.81,20.81,0,0,0,10.72-20.24A24.24,24.24,0,0,0,104.81,66,74.64,74.64,0,0,1,114.89,78.9a49.47,49.47,0,0,1,6.18,14.65,30.62,30.62,0,0,1-.66,16.85l-.24.71.57-.48a24.83,24.83,0,0,0,7.15-11,37.21,37.21,0,0,1-.65,6.76,32.83,32.83,0,0,1-7.92,16.16l-.7.82s5-2.77,9.75-2.77a14.68,14.68,0,0,1,2.68.25C129.58,121.85,124.53,125.24,119.46,129.33Zm15,13.42H129.1v-5.36h5.36Zm16.15-28.3h-6.18v-6.18h6.18Zm10-3.25v-7.94h8v7.94Z" transform="translate(-21.7 -24.16)"/><rect x="150.67" y="117.14" width="7.95" height="7.95"/><rect x="134.3" y="134.07" width="7.11" height="7.11"/><rect x="154.99" y="137.71" width="4.25" height="4.25"/><rect x="171.98" y="133.37" width="5.5" height="5.5"/><path d="M231.85,88.49a15.63,15.63,0,0,0-2.47-3.2,15.66,15.66,0,0,0-6.93-4.06,15.49,15.49,0,0,0-4.17-.56H202.53V120h7.88v-7.87h7.87a15.38,15.38,0,0,0,6.11-1.24,15.72,15.72,0,0,0,8.38-8.38,15.68,15.68,0,0,0-.92-14Zm-6.34,11a7.95,7.95,0,0,1-4.18,4.2,7.63,7.63,0,0,1-3.05.62h-7.87V88.55h7.87a7.62,7.62,0,0,1,3.05.61,8,8,0,0,1,2.49,1.69,7.87,7.87,0,0,1,1.69,8.63Z" transform="translate(-21.7 -24.16)"/><path d="M267.94,88.49a15.84,15.84,0,0,0-9.4-7.26,15.6,15.6,0,0,0-4.17-.56H238.62V120h7.87v-7.87l8.81-.06,3.43,7.93h8.37l-4.36-10.29a15.5,15.5,0,0,0,3.07-2.52,15.3,15.3,0,0,0,2.32-3.19,15.79,15.79,0,0,0,1.45-3.65,15.28,15.28,0,0,0,.51-4,15.6,15.6,0,0,0-.56-4.17A16.28,16.28,0,0,0,267.94,88.49Zm-6.34,11a7.93,7.93,0,0,1-1.69,2.51,7.83,7.83,0,0,1-2.5,1.69,7.58,7.58,0,0,1-3,.62h-7.88V88.55h7.88a7.57,7.57,0,0,1,3,.61,7.92,7.92,0,0,1,4.19,4.2,7.86,7.86,0,0,1,0,6.12Z" transform="translate(-21.7 -24.16)"/><path d="M311,90.25a20.12,20.12,0,0,0-3.19-4.12A20.36,20.36,0,0,0,303.74,83a20.57,20.57,0,0,0-4.86-2,20.34,20.34,0,0,0-10.8,0,20.93,20.93,0,0,0-4.86,2,20.43,20.43,0,0,0-7.32,7.3,20.11,20.11,0,0,0-2.79,10.26,19.65,19.65,0,0,0,.73,5.39,20.5,20.5,0,0,0,5.25,9,21,21,0,0,0,4.13,3.2,20.51,20.51,0,0,0,4.86,2,20.34,20.34,0,0,0,10.8,0,20.17,20.17,0,0,0,4.86-2,20.83,20.83,0,0,0,4.11-3.2,19.91,19.91,0,0,0,3.19-4.13,20.9,20.9,0,0,0,2-4.86,20,20,0,0,0,.73-5.39,20.24,20.24,0,0,0-.73-5.41A20.65,20.65,0,0,0,311,90.25Zm-6,15.1a12.93,12.93,0,0,1-2.68,4,12.54,12.54,0,0,1-4,2.69,12.5,12.5,0,0,1-9.75,0,12.68,12.68,0,0,1-6.67-6.66,11.94,11.94,0,0,1-1-4.84,12.15,12.15,0,0,1,1-4.87,12.38,12.38,0,0,1,2.69-4,12.74,12.74,0,0,1,4-2.68,12.62,12.62,0,0,1,9.75,0A12.52,12.52,0,0,1,305,95.64a12.15,12.15,0,0,1,1,4.87A11.94,11.94,0,0,1,305,105.35Z" transform="translate(-21.7 -24.16)"/><path d="M354.57,83.56A11.84,11.84,0,0,0,342,80.9a11.49,11.49,0,0,0-3.63,2.27,11.47,11.47,0,0,0-3.65-2.27,11.71,11.71,0,0,0-4.23-.78,11.58,11.58,0,0,0-4.59.92,11.72,11.72,0,0,0-3.76,2.52,11.86,11.86,0,0,0-2.53,3.76,11.66,11.66,0,0,0-.92,4.6V120h7.88V91.92a4,4,0,0,1,.3-1.54A4,4,0,0,1,329,88.3a3.92,3.92,0,0,1,5.16,2.08,3.78,3.78,0,0,1,.31,1.54V120h7.87V91.92a3.83,3.83,0,0,1,1.14-2.78,3.82,3.82,0,0,1,1.25-.84,4,4,0,0,1,1.54-.3,3.87,3.87,0,0,1,1.53.3,3.72,3.72,0,0,1,1.25.84,4,4,0,0,1,.85,1.24,3.79,3.79,0,0,1,.32,1.54V120H358V91.92a11.66,11.66,0,0,0-.92-4.6A12,12,0,0,0,354.57,83.56Z" transform="translate(-21.7 -24.16)"/><polygon points="343.34 95.87 370.32 95.87 370.32 87.99 351.22 87.99 351.22 80.14 364.15 80.14 364.15 72.27 351.22 72.27 351.22 64.39 370.32 64.39 370.32 56.51 343.34 56.51 343.34 95.87"/><polygon points="372.68 64.39 384.51 64.39 384.51 95.87 392.36 95.87 392.36 64.39 404.16 64.39 404.16 56.51 372.68 56.51 372.68 64.39"/><polygon points="431.93 72.27 416.2 72.27 416.2 56.51 408.33 56.51 408.33 95.87 416.2 95.87 416.2 80.14 431.93 80.14 431.93 95.87 439.8 95.87 439.8 56.51 431.93 56.51 431.93 72.27"/><polygon points="447.1 95.87 474.08 95.87 474.08 87.99 454.98 87.99 454.98 80.14 467.9 80.14 467.9 72.27 454.98 72.27 454.98 64.39 474.08 64.39 474.08 56.51 447.1 56.51 447.1 95.87"/><path d="M524.45,104.3a7.57,7.57,0,0,1-.61,3,8.17,8.17,0,0,1-1.69,2.5,8,8,0,0,1-2.51,1.69,7.86,7.86,0,0,1-6.12,0,7.93,7.93,0,0,1-2.51-1.69,7.83,7.83,0,0,1-1.69-2.5,7.58,7.58,0,0,1-.62-3V80.67h-7.85V104.3a15.23,15.23,0,0,0,1.24,6.13,15.67,15.67,0,0,0,3.36,5,16,16,0,0,0,5,3.37,15.92,15.92,0,0,0,12.27,0,16.18,16.18,0,0,0,5-3.37,15.53,15.53,0,0,0,3.37-5,15.23,15.23,0,0,0,1.24-6.13V80.67h-7.88Z" transform="translate(-21.7 -24.16)"/><path d="M564.89,99.86a11.8,11.8,0,0,0-8.36-3.44h-7.87a4,4,0,0,1-1.54-.3,3.82,3.82,0,0,1-1.25-.84A4.09,4.09,0,0,1,545,94a4,4,0,0,1-.3-1.55,4,4,0,0,1,.3-1.54,4.29,4.29,0,0,1,.84-1.25,3.92,3.92,0,0,1,2.79-1.13h18.05V80.67H548.66a11.41,11.41,0,0,0-4.59.93,12,12,0,0,0-6.28,6.29,11.33,11.33,0,0,0-.93,4.58,11.5,11.5,0,0,0,.93,4.6,11.92,11.92,0,0,0,6.28,6.29,11.25,11.25,0,0,0,4.59.94h7.87a4,4,0,0,1,1.54.3,3.82,3.82,0,0,1,1.25.84,4,4,0,0,1,.84,4.32,4.1,4.1,0,0,1-.84,1.25,4,4,0,0,1-1.25.83,3.78,3.78,0,0,1-1.54.31H539.05V120h17.48a11.5,11.5,0,0,0,4.6-.93,11.94,11.94,0,0,0,3.76-2.54,11.79,11.79,0,0,0,2.52-3.75,11.32,11.32,0,0,0,.92-4.58,11.49,11.49,0,0,0-.92-4.6A11.94,11.94,0,0,0,564.89,99.86Z" transform="translate(-21.7 -24.16)"/><rect x="267.96" y="72.7" width="7.95" height="7.95"/><rect x="548.58" y="56.56" width="8.02" height="7.86"/><rect x="180.82" y="100.04" width="7.88" height="7.74"/><rect x="173.43" y="119.02" width="4.25" height="4.25"/><rect x="157.22" y="100.64" width="4.25" height="4.25"/></svg>